<?xml version="1.0" standalone="no"?>
<svg xmlns:xlink="http://www.w3.org/1999/xlink" id="wave" style="transform:rotate(0deg); transition: 0.3s" viewBox="0 0 1440 300" version="1.1" xmlns="http://www.w3.org/2000/svg"><defs><linearGradient id="sw-gradient-0" x1="0" x2="0" y1="1" y2="0"><stop stop-color="rgba(239, 191, 203, 1)" offset="0%"/><stop stop-color="rgba(239, 191, 203, 1)" offset="100%"/></linearGradient></defs><path style="transform:translate(0, 0px); opacity:1" fill="url(#sw-gradient-0)" d="M0,60L40,55C80,50,160,40,240,55C320,70,400,110,480,145C560,180,640,210,720,185C800,160,880,80,960,60C1040,40,1120,80,1200,120C1280,160,1360,200,1440,195C1520,190,1600,140,1680,145C1760,150,1840,210,1920,215C2000,220,2080,170,2160,165C2240,160,2320,200,2400,190C2480,180,2560,120,2640,110C2720,100,2800,140,2880,135C2960,130,3040,80,3120,75C3200,70,3280,110,3360,135C3440,160,3520,170,3600,145C3680,120,3760,60,3840,55C3920,50,4000,100,4080,125C4160,150,4240,150,4320,125C4400,100,4480,50,4560,60C4640,70,4720,140,4800,140C4880,140,4960,70,5040,35C5120,0,5200,0,5280,45C5360,90,5440,180,5520,190C5600,200,5680,130,5720,95L5760,60L5760,300L5720,300C5680,300,5600,300,5520,300C5440,300,5360,300,5280,300C5200,300,5120,300,5040,300C4960,300,4880,300,4800,300C4720,300,4640,300,4560,300C4480,300,4400,300,4320,300C4240,300,4160,300,4080,300C4000,300,3920,300,3840,300C3760,300,3680,300,3600,300C3520,300,3440,300,3360,300C3280,300,3200,300,3120,300C3040,300,2960,300,2880,300C2800,300,2720,300,2640,300C2560,300,2480,300,2400,300C2320,300,2240,300,2160,300C2080,300,2000,300,1920,300C1840,300,1760,300,1680,300C1600,300,1520,300,1440,300C1360,300,1280,300,1200,300C1120,300,1040,300,960,300C880,300,800,300,720,300C640,300,560,300,480,300C400,300,320,300,240,300C160,300,80,300,40,300L0,300Z"/><defs><linearGradient id="sw-gradient-1" x1="0" x2="0" y1="1" y2="0"><stop stop-color="rgba(242, 219, 227, 1)" offset="0%"/><stop stop-color="rgba(242, 219, 227, 1)" offset="100%"/></linearGradient></defs><path style="transform:translate(0, 50px); opacity:0.9" fill="url(#sw-gradient-1)" d="M0,210L40,190C80,170,160,130,240,115C320,100,400,110,480,135C560,160,640,200,720,215C800,230,880,220,960,180C1040,140,1120,70,1200,50C1280,30,1360,60,1440,75C1520,90,1600,90,1680,85C1760,80,1840,70,1920,70C2000,70,2080,80,2160,115C2240,150,2320,210,2400,225C2480,240,2560,210,2640,165C2720,120,2800,60,2880,45C2960,30,3040,60,3120,65C3200,70,3280,50,3360,60C3440,70,3520,110,3600,125C3680,140,3760,130,3840,145C3920,160,4000,200,4080,225C4160,250,4240,260,4320,240C4400,220,4480,170,4560,170C4640,170,4720,220,4800,230C4880,240,4960,210,5040,210C5120,210,5200,240,5280,235C5360,230,5440,190,5520,170C5600,150,5680,150,5720,150L5760,150L5760,300L5720,300C5680,300,5600,300,5520,300C5440,300,5360,300,5280,300C5200,300,5120,300,5040,300C4960,300,4880,300,4800,300C4720,300,4640,300,4560,300C4480,300,4400,300,4320,300C4240,300,4160,300,4080,300C4000,300,3920,300,3840,300C3760,300,3680,300,3600,300C3520,300,3440,300,3360,300C3280,300,3200,300,3120,300C3040,300,2960,300,2880,300C2800,300,2720,300,2640,300C2560,300,2480,300,2400,300C2320,300,2240,300,2160,300C2080,300,2000,300,1920,300C1840,300,1760,300,1680,300C1600,300,1520,300,1440,300C1360,300,1280,300,1200,300C1120,300,1040,300,960,300C880,300,800,300,720,300C640,300,560,300,480,300C400,300,320,300,240,300C160,300,80,300,40,300L0,300Z"/><defs><linearGradient id="sw-gradient-2" x1="0" x2="0" y1="1" y2="0"><stop stop-color="rgba(255, 255, 255, 1)" offset="0%"/><stop stop-color="rgba(255, 255, 255, 1)" offset="100%"/></linearGradient></defs><path style="transform:translate(0, 100px); opacity:0.8" fill="url(#sw-gradient-2)" d="M0,30L40,70C80,110,160,190,240,220C320,250,400,230,480,200C560,170,640,130,720,125C800,120,880,150,960,170C1040,190,1120,200,1200,175C1280,150,1360,90,1440,55C1520,20,1600,10,1680,30C1760,50,1840,100,1920,130C2000,160,2080,170,2160,175C2240,180,2320,180,2400,190C2480,200,2560,220,2640,230C2720,240,2800,240,2880,225C2960,210,3040,180,3120,185C3200,190,3280,230,3360,225C3440,220,3520,170,3600,170C3680,170,3760,220,3840,215C3920,210,4000,150,4080,150C4160,150,4240,210,4320,205C4400,200,4480,130,4560,95C4640,60,4720,60,4800,85C4880,110,4960,160,5040,160C5120,160,5200,110,5280,120C5360,130,5440,200,5520,235C5600,270,5680,270,5720,270L5760,270L5760,300L5720,300C5680,300,5600,300,5520,300C5440,300,5360,300,5280,300C5200,300,5120,300,5040,300C4960,300,4880,300,4800,300C4720,300,4640,300,4560,300C4480,300,4400,300,4320,300C4240,300,4160,300,4080,300C4000,300,3920,300,3840,300C3760,300,3680,300,3600,300C3520,300,3440,300,3360,300C3280,300,3200,300,3120,300C3040,300,2960,300,2880,300C2800,300,2720,300,2640,300C2560,300,2480,300,2400,300C2320,300,2240,300,2160,300C2080,300,2000,300,1920,300C1840,300,1760,300,1680,300C1600,300,1520,300,1440,300C1360,300,1280,300,1200,300C1120,300,1040,300,960,300C880,300,800,300,720,300C640,300,560,300,480,300C400,300,320,300,240,300C160,300,80,300,40,300L0,300Z"/></svg>